<svg width="8" height="11" viewBox="0 0 8 11" fill="none" xmlns="http://www.w3.org/2000/svg">
<path fill-rule="evenodd" clip-rule="evenodd" d="M1.5001 10.3788L4.0001 7.87883L6.5001 10.3788C6.77625 10.655 7.22396 10.655 7.50011 10.3788C7.77625 10.1027 7.77625 9.65498 7.50011 9.37883L4.70721 6.58594C4.31669 6.19542 3.68352 6.19542 3.293 6.58594L0.500103 9.37883C0.223963 9.65498 0.223963 10.1027 0.500103 10.3788C0.776253 10.655 1.22396 10.655 1.5001 10.3788ZM1.5001 4.37883L4.0001 1.87883L6.5001 4.37883C6.77625 4.65498 7.22396 4.65498 7.50011 4.37883C7.77625 4.10269 7.77625 3.65498 7.50011 3.37883L4.70721 0.585906C4.31669 0.195406 3.68352 0.195406 3.293 0.585906L0.500103 3.37883C0.223963 3.65498 0.223963 4.10269 0.500103 4.37883C0.776253 4.65498 1.22396 4.65498 1.5001 4.37883Z" fill="#41F6D7"/>
</svg>
